<svg xmlns="http://www.w3.org/2000/svg" version="1.1" xmlns:xlink="http://www.w3.org/1999/xlink" xmlns:svgjs="http://svgjs.dev/svgjs" viewBox="0 0 1422 800" opacity="0.1"><g stroke-width="1" stroke="hsl(0, 0%, 100%)" fill="none" stroke-linecap="butt"><line x1="222" y1="0" x2="0" y2="222" opacity="0.51"></line><line x1="444" y1="0" x2="222" y2="222" opacity="0.20"></line><line x1="444" y1="0" x2="666" y2="222" opacity="0.54"></line><line x1="888" y1="0" x2="666" y2="222" opacity="0.40"></line><line x1="888" y1="0" x2="1110" y2="222" opacity="0.98"></line><line x1="1110" y1="0" x2="1332" y2="222" opacity="0.67"></line><line x1="1554" y1="0" x2="1332" y2="222" opacity="0.81"></line><line x1="222" y1="222" x2="0" y2="444" opacity="0.36"></line><line x1="444" y1="222" x2="222" y2="444" opacity="0.93"></line><line x1="666" y1="222" x2="444" y2="444" opacity="0.09"></line><line x1="888" y1="222" x2="666" y2="444" opacity="0.54"></line><line x1="1110" y1="222" x2="888" y2="444" opacity="0.54"></line><line x1="1110" y1="222" x2="1332" y2="444" opacity="0.14"></line><line x1="1554" y1="222" x2="1332" y2="444" opacity="0.72"></line><line x1="222" y1="444" x2="0" y2="666" opacity="0.30"></line><line x1="444" y1="444" x2="222" y2="666" opacity="0.62"></line><line x1="444" y1="444" x2="666" y2="666" opacity="0.70"></line><line x1="888" y1="444" x2="666" y2="666" opacity="0.95"></line><line x1="888" y1="444" x2="1110" y2="666" opacity="0.44"></line><line x1="1332" y1="444" x2="1110" y2="666" opacity="0.85"></line><line x1="1554" y1="444" x2="1332" y2="666" opacity="0.28"></line><line x1="222" y1="666" x2="0" y2="888" opacity="0.97"></line><line x1="444" y1="666" x2="222" y2="888" opacity="0.52"></line><line x1="444" y1="666" x2="666" y2="888" opacity="0.69"></line><line x1="888" y1="666" x2="666" y2="888" opacity="0.39"></line><line x1="1110" y1="666" x2="888" y2="888" opacity="0.73"></line><line x1="1110" y1="666" x2="1332" y2="888" opacity="0.16"></line><line x1="1332" y1="666" x2="1554" y2="888" opacity="0.41"></line></g></svg>