<svg xmlns="http://www.w3.org/2000/svg" width="148" height="79" viewBox="0 0 148 79" fill="none">
  <g opacity="0.5">
    <rect width="1.16175" height="1.16366" fill="#6F6F6F"/>
    <rect x="7.74487" width="1.16175" height="1.16366" fill="#6F6F6F"/>
    <rect x="15.49" width="1.16175" height="1.16366" fill="#6F6F6F"/>
    <rect x="23.2349" width="1.16175" height="1.16366" fill="#6F6F6F"/>
    <rect x="30.9797" width="1.16175" height="1.16366" fill="#6F6F6F"/>
    <rect x="38.7251" width="1.16175" height="1.16366" fill="#6F6F6F"/>
    <rect x="46.4702" width="1.16175" height="1.16366" fill="#6F6F6F"/>
    <rect x="54.2151" width="1.16175" height="1.16366" fill="#6F6F6F"/>
    <rect x="61.9602" width="1.16175" height="1.16366" fill="#6F6F6F"/>
    <rect x="69.7046" width="1.16175" height="1.16366" fill="#6F6F6F"/>
    <rect y="7.75757" width="1.16175" height="1.16366" fill="#6F6F6F"/>
    <rect x="7.74487" y="7.75757" width="1.16175" height="1.16366" fill="#6F6F6F"/>
    <rect x="15.49" y="7.75757" width="1.16175" height="1.16366" fill="#6F6F6F"/>
    <rect x="23.2349" y="7.75757" width="1.16175" height="1.16366" fill="#6F6F6F"/>
    <rect x="30.9797" y="7.75757" width="1.16175" height="1.16366" fill="#6F6F6F"/>
    <rect x="38.7251" y="7.75757" width="1.16175" height="1.16366" fill="#6F6F6F"/>
    <rect x="46.4702" y="7.75757" width="1.16175" height="1.16366" fill="#6F6F6F"/>
    <rect x="54.2151" y="7.75757" width="1.16175" height="1.16366" fill="#6F6F6F"/>
    <rect x="61.9602" y="7.75757" width="1.16175" height="1.16366" fill="#6F6F6F"/>
    <rect x="69.7046" y="7.75757" width="1.16175" height="1.16366" fill="#6F6F6F"/>
    <rect y="15.5154" width="1.16175" height="1.16366" fill="#6F6F6F"/>
    <rect x="7.74487" y="15.5154" width="1.16175" height="1.16366" fill="#6F6F6F"/>
    <rect x="15.49" y="15.5154" width="1.16175" height="1.16366" fill="#6F6F6F"/>
    <rect x="23.2349" y="15.5154" width="1.16175" height="1.16366" fill="#6F6F6F"/>
    <rect x="30.9797" y="15.5154" width="1.16175" height="1.16366" fill="#6F6F6F"/>
    <rect x="38.7251" y="15.5154" width="1.16175" height="1.16366" fill="#6F6F6F"/>
    <rect x="46.4702" y="15.5154" width="1.16175" height="1.16366" fill="#6F6F6F"/>
    <rect x="54.2151" y="15.5154" width="1.16175" height="1.16366" fill="#6F6F6F"/>
    <rect x="61.9602" y="15.5154" width="1.16175" height="1.16366" fill="#6F6F6F"/>
    <rect x="69.7046" y="15.5154" width="1.16175" height="1.16366" fill="#6F6F6F"/>
    <rect y="23.2734" width="1.16175" height="1.16366" fill="#6F6F6F"/>
    <rect x="7.74487" y="23.2734" width="1.16175" height="1.16366" fill="#6F6F6F"/>
    <rect x="15.49" y="23.2734" width="1.16175" height="1.16366" fill="#6F6F6F"/>
    <rect x="23.2349" y="23.2734" width="1.16175" height="1.16366" fill="#6F6F6F"/>
    <rect x="30.9797" y="23.2734" width="1.16175" height="1.16366" fill="#6F6F6F"/>
    <rect x="38.7251" y="23.2734" width="1.16175" height="1.16366" fill="#6F6F6F"/>
    <rect x="46.4702" y="23.2734" width="1.16175" height="1.16366" fill="#6F6F6F"/>
    <rect x="54.2151" y="23.2734" width="1.16175" height="1.16366" fill="#6F6F6F"/>
    <rect x="61.9602" y="23.2734" width="1.16175" height="1.16366" fill="#6F6F6F"/>
    <rect x="69.7046" y="23.2734" width="1.16175" height="1.16366" fill="#6F6F6F"/>
    <rect y="31.0308" width="1.16175" height="1.16366" fill="#6F6F6F"/>
    <rect x="7.74487" y="31.0308" width="1.16175" height="1.16366" fill="#6F6F6F"/>
    <rect x="15.49" y="31.0308" width="1.16175" height="1.16366" fill="#6F6F6F"/>
    <rect x="23.2349" y="31.0308" width="1.16175" height="1.16366" fill="#6F6F6F"/>
    <rect x="30.9797" y="31.0308" width="1.16175" height="1.16366" fill="#6F6F6F"/>
    <rect x="38.7251" y="31.0308" width="1.16175" height="1.16366" fill="#6F6F6F"/>
    <rect x="46.4702" y="31.0308" width="1.16175" height="1.16366" fill="#6F6F6F"/>
    <rect x="54.2151" y="31.0308" width="1.16175" height="1.16366" fill="#6F6F6F"/>
    <rect x="61.9602" y="31.0308" width="1.16175" height="1.16366" fill="#6F6F6F"/>
    <rect x="69.7046" y="31.0308" width="1.16175" height="1.16366" fill="#6F6F6F"/>
    <rect y="38.7888" width="1.16175" height="1.16366" fill="#6F6F6F"/>
    <rect x="7.74487" y="38.7888" width="1.16175" height="1.16366" fill="#6F6F6F"/>
    <rect x="15.49" y="38.7888" width="1.16175" height="1.16366" fill="#6F6F6F"/>
    <rect x="23.2349" y="38.7888" width="1.16175" height="1.16366" fill="#6F6F6F"/>
    <rect x="30.9797" y="38.7888" width="1.16175" height="1.16366" fill="#6F6F6F"/>
    <rect x="38.7251" y="38.7888" width="1.16175" height="1.16366" fill="#6F6F6F"/>
    <rect x="46.4702" y="38.7888" width="1.16175" height="1.16366" fill="#6F6F6F"/>
    <rect x="54.2151" y="38.7888" width="1.16175" height="1.16366" fill="#6F6F6F"/>
    <rect x="61.9602" y="38.7888" width="1.16175" height="1.16366" fill="#6F6F6F"/>
    <rect x="69.7046" y="38.7888" width="1.16175" height="1.16366" fill="#6F6F6F"/>
    <rect y="46.5464" width="1.16175" height="1.16366" fill="#6F6F6F"/>
    <rect x="7.74487" y="46.5461" width="1.16175" height="1.16366" fill="#6F6F6F"/>
    <rect x="15.49" y="46.5464" width="1.16175" height="1.16366" fill="#6F6F6F"/>
    <rect x="23.2349" y="46.5464" width="1.16175" height="1.16366" fill="#6F6F6F"/>
    <rect x="30.9797" y="46.5464" width="1.16175" height="1.16366" fill="#6F6F6F"/>
    <rect x="38.7251" y="46.5461" width="1.16175" height="1.16366" fill="#6F6F6F"/>
    <rect x="46.4702" y="46.5461" width="1.16175" height="1.16366" fill="#6F6F6F"/>
    <rect x="54.2151" y="46.5464" width="1.16175" height="1.16366" fill="#6F6F6F"/>
    <rect x="61.9602" y="46.5464" width="1.16175" height="1.16366" fill="#6F6F6F"/>
    <rect x="69.7046" y="46.5464" width="1.16175" height="1.16366" fill="#6F6F6F"/>
    <rect y="54.3037" width="1.16175" height="1.16366" fill="#6F6F6F"/>
    <rect x="7.74487" y="54.3042" width="1.16175" height="1.16366" fill="#6F6F6F"/>
    <rect x="15.49" y="54.3042" width="1.16175" height="1.16366" fill="#6F6F6F"/>
    <rect x="23.2349" y="54.3042" width="1.16175" height="1.16366" fill="#6F6F6F"/>
    <rect x="30.9797" y="54.3042" width="1.16175" height="1.16366" fill="#6F6F6F"/>
    <rect x="38.7251" y="54.3042" width="1.16175" height="1.16366" fill="#6F6F6F"/>
    <rect x="46.4702" y="54.3042" width="1.16175" height="1.16366" fill="#6F6F6F"/>
    <rect x="54.2151" y="54.3042" width="1.16175" height="1.16366" fill="#6F6F6F"/>
    <rect x="61.9602" y="54.3042" width="1.16175" height="1.16366" fill="#6F6F6F"/>
    <rect x="69.7046" y="54.3042" width="1.16175" height="1.16366" fill="#6F6F6F"/>
    <rect y="62.0618" width="1.16175" height="1.16366" fill="#6F6F6F"/>
    <rect x="7.74487" y="62.0618" width="1.16175" height="1.16366" fill="#6F6F6F"/>
    <rect x="15.49" y="62.0618" width="1.16175" height="1.16366" fill="#6F6F6F"/>
    <rect x="23.2349" y="62.0618" width="1.16175" height="1.16366" fill="#6F6F6F"/>
    <rect x="30.9797" y="62.0618" width="1.16175" height="1.16366" fill="#6F6F6F"/>
    <rect x="38.7251" y="62.0618" width="1.16175" height="1.16366" fill="#6F6F6F"/>
    <rect x="46.4702" y="62.0618" width="1.16175" height="1.16366" fill="#6F6F6F"/>
    <rect x="54.2151" y="62.0618" width="1.16175" height="1.16366" fill="#6F6F6F"/>
    <rect x="61.9602" y="62.0618" width="1.16175" height="1.16366" fill="#6F6F6F"/>
    <rect x="69.7046" y="62.0618" width="1.16175" height="1.16366" fill="#6F6F6F"/>
    <rect y="69.8191" width="1.16175" height="1.16366" fill="#6F6F6F"/>
    <rect x="7.74487" y="69.8193" width="1.16175" height="1.16366" fill="#6F6F6F"/>
    <rect x="15.49" y="69.8191" width="1.16175" height="1.16366" fill="#6F6F6F"/>
    <rect x="23.2349" y="69.8191" width="1.16175" height="1.16366" fill="#6F6F6F"/>
    <rect x="30.9797" y="69.8191" width="1.16175" height="1.16366" fill="#6F6F6F"/>
    <rect x="38.7251" y="69.8193" width="1.16175" height="1.16366" fill="#6F6F6F"/>
    <rect x="46.4702" y="69.8193" width="1.16175" height="1.16366" fill="#6F6F6F"/>
    <rect x="54.2151" y="69.8191" width="1.16175" height="1.16366" fill="#6F6F6F"/>
    <rect x="61.9602" y="69.8191" width="1.16175" height="1.16366" fill="#6F6F6F"/>
    <rect x="69.7046" y="69.8191" width="1.16175" height="1.16366" fill="#6F6F6F"/>
    <rect y="77.5771" width="1.16175" height="1.16366" fill="#6F6F6F"/>
    <rect x="7.74487" y="77.5776" width="1.16175" height="1.16366" fill="#6F6F6F"/>
    <rect x="15.49" y="77.5776" width="1.16175" height="1.16366" fill="#6F6F6F"/>
    <rect x="23.2349" y="77.5776" width="1.16175" height="1.16366" fill="#6F6F6F"/>
    <rect x="30.9797" y="77.5776" width="1.16175" height="1.16366" fill="#6F6F6F"/>
    <rect x="38.7251" y="77.5776" width="1.16175" height="1.16366" fill="#6F6F6F"/>
    <rect x="46.4702" y="77.5776" width="1.16175" height="1.16366" fill="#6F6F6F"/>
    <rect x="54.2151" y="77.5776" width="1.16175" height="1.16366" fill="#6F6F6F"/>
    <rect x="61.9602" y="77.5776" width="1.16175" height="1.16366" fill="#6F6F6F"/>
    <rect x="69.7046" y="77.5776" width="1.16175" height="1.16366" fill="#6F6F6F"/>
  </g>
  <g opacity="0.5">
    <rect x="77.1333" width="1.16175" height="1.16366" fill="#6F6F6F"/>
    <rect x="84.8782" width="1.16175" height="1.16366" fill="#6F6F6F"/>
    <rect x="92.6233" width="1.16175" height="1.16366" fill="#6F6F6F"/>
    <rect x="100.368" width="1.16175" height="1.16366" fill="#6F6F6F"/>
    <rect x="108.113" width="1.16175" height="1.16366" fill="#6F6F6F"/>
    <rect x="115.859" width="1.16175" height="1.16366" fill="#6F6F6F"/>
    <rect x="123.604" width="1.16175" height="1.16366" fill="#6F6F6F"/>
    <rect x="131.348" width="1.16175" height="1.16366" fill="#6F6F6F"/>
    <rect x="139.094" width="1.16175" height="1.16366" fill="#6F6F6F"/>
    <rect x="146.838" width="1.16175" height="1.16366" fill="#6F6F6F"/>
    <rect x="77.1333" y="7.75757" width="1.16175" height="1.16366" fill="#6F6F6F"/>
    <rect x="84.8782" y="7.75757" width="1.16175" height="1.16366" fill="#6F6F6F"/>
    <rect x="92.6233" y="7.75757" width="1.16175" height="1.16366" fill="#6F6F6F"/>
    <rect x="100.368" y="7.75757" width="1.16175" height="1.16366" fill="#6F6F6F"/>
    <rect x="108.113" y="7.75757" width="1.16175" height="1.16366" fill="#6F6F6F"/>
    <rect x="115.859" y="7.75757" width="1.16175" height="1.16366" fill="#6F6F6F"/>
    <rect x="123.604" y="7.75757" width="1.16175" height="1.16366" fill="#6F6F6F"/>
    <rect x="131.348" y="7.75757" width="1.16175" height="1.16366" fill="#6F6F6F"/>
    <rect x="139.094" y="7.75757" width="1.16175" height="1.16366" fill="#6F6F6F"/>
    <rect x="146.838" y="7.75757" width="1.16175" height="1.16366" fill="#6F6F6F"/>
    <rect x="77.1333" y="15.5154" width="1.16175" height="1.16366" fill="#6F6F6F"/>
    <rect x="84.8782" y="15.5154" width="1.16175" height="1.16366" fill="#6F6F6F"/>
    <rect x="92.6233" y="15.5154" width="1.16175" height="1.16366" fill="#6F6F6F"/>
    <rect x="100.368" y="15.5154" width="1.16175" height="1.16366" fill="#6F6F6F"/>
    <rect x="108.113" y="15.5154" width="1.16175" height="1.16366" fill="#6F6F6F"/>
    <rect x="115.859" y="15.5154" width="1.16175" height="1.16366" fill="#6F6F6F"/>
    <rect x="123.604" y="15.5154" width="1.16175" height="1.16366" fill="#6F6F6F"/>
    <rect x="131.348" y="15.5154" width="1.16175" height="1.16366" fill="#6F6F6F"/>
    <rect x="139.094" y="15.5154" width="1.16175" height="1.16366" fill="#6F6F6F"/>
    <rect x="146.838" y="15.5154" width="1.16175" height="1.16366" fill="#6F6F6F"/>
    <rect x="77.1333" y="23.2734" width="1.16175" height="1.16366" fill="#6F6F6F"/>
    <rect x="84.8782" y="23.2734" width="1.16175" height="1.16366" fill="#6F6F6F"/>
    <rect x="92.6233" y="23.2734" width="1.16175" height="1.16366" fill="#6F6F6F"/>
    <rect x="100.368" y="23.2734" width="1.16175" height="1.16366" fill="#6F6F6F"/>
    <rect x="108.113" y="23.2734" width="1.16175" height="1.16366" fill="#6F6F6F"/>
    <rect x="115.859" y="23.2734" width="1.16175" height="1.16366" fill="#6F6F6F"/>
    <rect x="123.604" y="23.2734" width="1.16175" height="1.16366" fill="#6F6F6F"/>
    <rect x="131.348" y="23.2734" width="1.16175" height="1.16366" fill="#6F6F6F"/>
    <rect x="139.094" y="23.2734" width="1.16175" height="1.16366" fill="#6F6F6F"/>
    <rect x="146.838" y="23.2734" width="1.16175" height="1.16366" fill="#6F6F6F"/>
    <rect x="77.1333" y="31.0308" width="1.16175" height="1.16366" fill="#6F6F6F"/>
    <rect x="84.8782" y="31.0308" width="1.16175" height="1.16366" fill="#6F6F6F"/>
    <rect x="92.6233" y="31.0308" width="1.16175" height="1.16366" fill="#6F6F6F"/>
    <rect x="100.368" y="31.0308" width="1.16175" height="1.16366" fill="#6F6F6F"/>
    <rect x="108.113" y="31.0308" width="1.16175" height="1.16366" fill="#6F6F6F"/>
    <rect x="115.859" y="31.0308" width="1.16175" height="1.16366" fill="#6F6F6F"/>
    <rect x="123.604" y="31.0308" width="1.16175" height="1.16366" fill="#6F6F6F"/>
    <rect x="131.348" y="31.0308" width="1.16175" height="1.16366" fill="#6F6F6F"/>
    <rect x="139.094" y="31.0308" width="1.16175" height="1.16366" fill="#6F6F6F"/>
    <rect x="146.838" y="31.0308" width="1.16175" height="1.16366" fill="#6F6F6F"/>
    <rect x="77.1333" y="38.7888" width="1.16175" height="1.16366" fill="#6F6F6F"/>
    <rect x="84.8782" y="38.7888" width="1.16175" height="1.16366" fill="#6F6F6F"/>
    <rect x="92.6233" y="38.7888" width="1.16175" height="1.16366" fill="#6F6F6F"/>
    <rect x="100.368" y="38.7888" width="1.16175" height="1.16366" fill="#6F6F6F"/>
    <rect x="108.113" y="38.7888" width="1.16175" height="1.16366" fill="#6F6F6F"/>
    <rect x="115.859" y="38.7888" width="1.16175" height="1.16366" fill="#6F6F6F"/>
    <rect x="123.604" y="38.7888" width="1.16175" height="1.16366" fill="#6F6F6F"/>
    <rect x="131.348" y="38.7888" width="1.16175" height="1.16366" fill="#6F6F6F"/>
    <rect x="139.094" y="38.7888" width="1.16175" height="1.16366" fill="#6F6F6F"/>
    <rect x="146.838" y="38.7888" width="1.16175" height="1.16366" fill="#6F6F6F"/>
    <rect x="77.1333" y="46.5464" width="1.16175" height="1.16366" fill="#6F6F6F"/>
    <rect x="84.8782" y="46.5461" width="1.16175" height="1.16366" fill="#6F6F6F"/>
    <rect x="92.6233" y="46.5464" width="1.16175" height="1.16366" fill="#6F6F6F"/>
    <rect x="100.368" y="46.5464" width="1.16175" height="1.16366" fill="#6F6F6F"/>
    <rect x="108.113" y="46.5464" width="1.16175" height="1.16366" fill="#6F6F6F"/>
    <rect x="115.859" y="46.5461" width="1.16175" height="1.16366" fill="#6F6F6F"/>
    <rect x="123.604" y="46.5461" width="1.16175" height="1.16366" fill="#6F6F6F"/>
    <rect x="131.348" y="46.5464" width="1.16175" height="1.16366" fill="#6F6F6F"/>
    <rect x="139.094" y="46.5464" width="1.16175" height="1.16366" fill="#6F6F6F"/>
    <rect x="146.838" y="46.5464" width="1.16175" height="1.16366" fill="#6F6F6F"/>
    <rect x="77.1333" y="54.3037" width="1.16175" height="1.16366" fill="#6F6F6F"/>
    <rect x="84.8782" y="54.3042" width="1.16175" height="1.16366" fill="#6F6F6F"/>
    <rect x="92.6233" y="54.3042" width="1.16175" height="1.16366" fill="#6F6F6F"/>
    <rect x="100.368" y="54.3042" width="1.16175" height="1.16366" fill="#6F6F6F"/>
    <rect x="108.113" y="54.3042" width="1.16175" height="1.16366" fill="#6F6F6F"/>
    <rect x="115.859" y="54.3042" width="1.16175" height="1.16366" fill="#6F6F6F"/>
    <rect x="123.604" y="54.3042" width="1.16175" height="1.16366" fill="#6F6F6F"/>
    <rect x="131.348" y="54.3042" width="1.16175" height="1.16366" fill="#6F6F6F"/>
    <rect x="139.094" y="54.3042" width="1.16175" height="1.16366" fill="#6F6F6F"/>
    <rect x="146.838" y="54.3042" width="1.16175" height="1.16366" fill="#6F6F6F"/>
    <rect x="77.1333" y="62.0618" width="1.16175" height="1.16366" fill="#6F6F6F"/>
    <rect x="84.8782" y="62.0618" width="1.16175" height="1.16366" fill="#6F6F6F"/>
    <rect x="92.6233" y="62.0618" width="1.16175" height="1.16366" fill="#6F6F6F"/>
    <rect x="100.368" y="62.0618" width="1.16175" height="1.16366" fill="#6F6F6F"/>
    <rect x="108.113" y="62.0618" width="1.16175" height="1.16366" fill="#6F6F6F"/>
    <rect x="115.859" y="62.0618" width="1.16175" height="1.16366" fill="#6F6F6F"/>
    <rect x="123.604" y="62.0618" width="1.16175" height="1.16366" fill="#6F6F6F"/>
    <rect x="131.348" y="62.0618" width="1.16175" height="1.16366" fill="#6F6F6F"/>
    <rect x="139.094" y="62.0618" width="1.16175" height="1.16366" fill="#6F6F6F"/>
    <rect x="146.838" y="62.0618" width="1.16175" height="1.16366" fill="#6F6F6F"/>
    <rect x="77.1333" y="69.8191" width="1.16175" height="1.16366" fill="#6F6F6F"/>
    <rect x="84.8782" y="69.8193" width="1.16175" height="1.16366" fill="#6F6F6F"/>
    <rect x="92.6233" y="69.8191" width="1.16175" height="1.16366" fill="#6F6F6F"/>
    <rect x="100.368" y="69.8191" width="1.16175" height="1.16366" fill="#6F6F6F"/>
    <rect x="108.113" y="69.8191" width="1.16175" height="1.16366" fill="#6F6F6F"/>
    <rect x="115.859" y="69.8193" width="1.16175" height="1.16366" fill="#6F6F6F"/>
    <rect x="123.604" y="69.8193" width="1.16175" height="1.16366" fill="#6F6F6F"/>
    <rect x="131.348" y="69.8191" width="1.16175" height="1.16366" fill="#6F6F6F"/>
    <rect x="139.094" y="69.8191" width="1.16175" height="1.16366" fill="#6F6F6F"/>
    <rect x="146.838" y="69.8191" width="1.16175" height="1.16366" fill="#6F6F6F"/>
    <rect x="77.1333" y="77.5771" width="1.16175" height="1.16366" fill="#6F6F6F"/>
    <rect x="84.8782" y="77.5776" width="1.16175" height="1.16366" fill="#6F6F6F"/>
    <rect x="92.6233" y="77.5776" width="1.16175" height="1.16366" fill="#6F6F6F"/>
    <rect x="100.368" y="77.5776" width="1.16175" height="1.16366" fill="#6F6F6F"/>
    <rect x="108.113" y="77.5776" width="1.16175" height="1.16366" fill="#6F6F6F"/>
    <rect x="115.859" y="77.5776" width="1.16175" height="1.16366" fill="#6F6F6F"/>
    <rect x="123.604" y="77.5776" width="1.16175" height="1.16366" fill="#6F6F6F"/>
    <rect x="131.348" y="77.5776" width="1.16175" height="1.16366" fill="#6F6F6F"/>
    <rect x="139.094" y="77.5776" width="1.16175" height="1.16366" fill="#6F6F6F"/>
    <rect x="146.838" y="77.5776" width="1.16175" height="1.16366" fill="#6F6F6F"/>
  </g>
</svg>
