<?xml version="1.0" standalone="no"?><svg xmlns:xlink="http://www.w3.org/1999/xlink" xmlns="http://www.w3.org/2000/svg" viewBox="0 0 1000 1400.010536297545" preserveAspectRatio="xMaxYMax slice"><g transform="scale(3.292592982825835)"><rect x="0" y="0" width="303.7142857142857" height="425.20000000000005" fill="#dad4d1"/><rect x="0" y="0" width="60.74" height="60.74" fill="#dfc1ba"/><path d="M 0 60.74 A 60.74 60.74 0 0 0 60.74 0 L 0 0L0 60.74" fill="#434344"/><rect x="121.4857142857143" y="0" width="60.74285714285715" height="60.74285714285715" fill="#dad4d1"/><rect x="121.49" y="0" width="30.37" height="30.37" fill="#ddc7c2"/><path d="M 121.49 30.37 A 30.37 30.37 0 0 0 151.85999999999999 0 L 121.49 0L121.49 30.37" fill="#dbceca"/><rect x="151.86" y="0" width="30.37" height="30.37" fill="#bfbab8"/><path d="M 151.86 30.37 A 30.37 30.37 0 0 0 182.23000000000002 0 L 151.86 0L151.86 30.37" fill="#bbb6b4"/><rect x="121.49" y="30.37" width="30.37" height="30.37" fill="#ddc7c1"/><path d="M 121.49 60.74 A 30.37 30.37 0 0 1  151.85999999999999 30.37 L 151.85999999999999 60.74L121.49 60.74" fill="#e89d90"/><rect x="151.86" y="30.37" width="30.37" height="30.37" fill="#414142"/><path d="M 151.86 30.37 A 30.37 30.37 0 0 1 182.23000000000002 60.74 L 151.86 60.74L151.86 30.37" fill="#989493"/><rect x="242.9714285714286" y="0" width="60.74285714285715" height="60.74285714285715" fill="#dad4d1"/><rect x="242.97" y="0" width="30.37" height="30.37" fill="#e5a99e"/><path d="M 242.97 0 A 30.37 30.37 0 0 0 273.34 30.37 L 273.34 0L242.97 0" fill="#323234"/><rect x="242.97" y="30.37" width="30.37" height="30.37" fill="#ed8b7a"/><path d="M 242.97 30.37 A 30.37 30.37 0 0 1  273.34 60.74 L 242.97 30.37 A 30.37 30.37 0 0 0 273.34 60.74" fill="#e1b8b0"/><rect x="0" y="60.74" width="60.74" height="60.74" fill="#b6b2b0"/><path d="M 0 60.74 A 60.74 60.74 0 0 0 60.74 121.48 L 60.74 60.74L0 60.74" fill="#e9988a"/><rect x="60.74" y="60.74" width="60.74" height="60.74" fill="#e4aea4"/><path d="M 60.74 121.48 A 60.74 60.74 0 0 0 121.48 60.74 L 60.74 60.74L60.74 121.48" fill="#a9a5a3"/><rect x="121.4857142857143" y="60.74285714285715" width="60.74285714285715" height="60.74285714285715" fill="#dad4d1"/><rect x="121.49" y="60.74" width="30.37" height="30.37" fill="#303033"/><path d="M 121.49 91.11 A 30.37 30.37 0 0 1  151.85999999999999 60.74 L 151.85999999999999 91.11L121.49 91.11" fill="#d8d2cf"/><rect x="151.86" y="60.74" width="30.37" height="30.37" fill="#dec3bd"/><path d="M 151.86 91.11 A 30.37 30.37 0 0 1  182.23000000000002 60.74 L 182.23000000000002 91.11L151.86 91.11" fill="#202123"/><rect x="182.23" y="60.74" width="60.74" height="60.74" fill="#49484a"/><path d="M 182.23 121.48 A 60.74 60.74 0 0 0 242.97 60.74 L 182.23 60.74L182.23 121.48" fill="#c3bdbb"/><rect x="0" y="121.49" width="60.74" height="60.74" fill="#e4aca1"/><path d="M 0 182.23 A 60.74 60.74 0 0 0 60.74 121.49 L 0 121.49L0 182.23" fill="#d7d2cf"/><rect x="121.4857142857143" y="121.4857142857143" width="60.74285714285715" height="60.74285714285715" fill="#dad4d1"/><rect x="151.86" y="121.49" width="30.37" height="30.37" fill="#605f60"/><path d="M 151.86 121.49 A 30.37 30.37 0 0 1  182.23000000000002 151.85999999999999 L 151.86 121.49 A 30.37 30.37 0 0 0 182.23000000000002 151.85999999999999" fill="#838080"/><rect x="182.22857142857146" y="121.4857142857143" width="60.74285714285715" height="60.74285714285715" fill="#dad4d1"/><rect x="182.23" y="121.49" width="30.37" height="30.37" fill="#5d5b5c"/><path d="M 182.23 151.85999999999999 A 30.37 30.37 0 0 0 212.6 121.49 L 182.23 121.49L182.23 151.85999999999999" fill="#868382"/><rect x="182.23" y="151.86" width="30.37" height="30.37" fill="#3a3a3c"/><path d="M 182.23 182.23000000000002 A 30.37 30.37 0 0 1  212.6 151.86 L 212.6 182.23000000000002L182.23 182.23000000000002" fill="#ccc7c4"/><rect x="212.6" y="151.86" width="30.37" height="30.37" fill="#8c8989"/><path d="M 212.6 182.23000000000002 A 30.37 30.37 0 0 0 242.97 151.86 L 212.6 151.86L212.6 182.23000000000002" fill="#6a6869"/><rect x="242.9714285714286" y="121.4857142857143" width="60.74285714285715" height="60.74285714285715" fill="#dad4d1"/><rect x="242.97" y="151.86" width="30.37" height="30.37" fill="#525152"/><path d="M 242.97 182.23000000000002 A 30.37 30.37 0 0 0 273.34 151.86 L 242.97 151.86L242.97 182.23000000000002" fill="#d5cfcc"/><rect x="273.34" y="151.86" width="30.37" height="30.37" fill="#e0bdb5"/><path d="M 273.34 151.86 A 30.37 30.37 0 0 1  303.71 182.23000000000002 L 273.34 151.86 A 30.37 30.37 0 0 0 303.71 182.23000000000002" fill="#e99a8c"/><rect x="0" y="182.22857142857146" width="60.74285714285715" height="60.74285714285715" fill="#dad4d1"/><rect x="0" y="182.23" width="30.37" height="30.37" fill="#e89c8f"/><path d="M 0 212.6 A 30.37 30.37 0 0 0 30.37 182.23 L 0 182.23L0 212.6" fill="#aca8a6"/><rect x="30.37" y="182.23" width="30.37" height="30.37" fill="#e0beb7"/><path d="M 30.37 212.6 A 30.37 30.37 0 0 1  60.74 182.23 L 30.37 212.6 A 30.37 30.37 0 0 0 60.74 182.23" fill="#aaa6a4"/><rect x="0" y="212.6" width="30.37" height="30.37" fill="#e6a69b"/><path d="M 0 212.6 A 30.37 30.37 0 0 1  30.37 242.97 L 0 212.6 A 30.37 30.37 0 0 0 30.37 242.97" fill="#e5aaa0"/><rect x="30.37" y="212.6" width="30.37" height="30.37" fill="#e79f93"/><path d="M 30.37 212.6 A 30.37 30.37 0 0 0 60.74 242.97 L 60.74 212.6L30.37 212.6" fill="#ea9587"/><rect x="60.74285714285715" y="182.22857142857146" width="60.74285714285715" height="60.74285714285715" fill="#dad4d1"/><rect x="60.74" y="182.23" width="30.37" height="30.37" fill="#ada9a7"/><path d="M 60.74 182.23 A 30.37 30.37 0 0 1  91.11 212.6 L 60.74 182.23 A 30.37 30.37 0 0 0 91.11 212.6" fill="#6d6b6b"/><rect x="91.11" y="182.23" width="30.37" height="30.37" fill="#e4aba0"/><path d="M 91.11 212.6 A 30.37 30.37 0 0 0 121.48 182.23 L 91.11 182.23L91.11 212.6" fill="#b1adab"/><rect x="60.74" y="212.6" width="30.37" height="30.37" fill="#dccdc8"/><path d="M 60.74 242.97 A 30.37 30.37 0 0 0 91.11 212.6 L 60.74 212.6L60.74 242.97" fill="#212225"/><rect x="91.11" y="212.6" width="30.37" height="30.37" fill="#e4ada3"/><path d="M 91.11 242.97 A 30.37 30.37 0 0 1  121.48 212.6 L 91.11 242.97 A 30.37 30.37 0 0 0 121.48 212.6" fill="#eb9283"/><rect x="121.4857142857143" y="182.22857142857146" width="60.74285714285715" height="60.74285714285715" fill="#dad4d1"/><rect x="121.49" y="182.23" width="30.37" height="30.37" fill="#e4ada3"/><path d="M 121.49 212.6 A 30.37 30.37 0 0 1  151.85999999999999 182.23 L 151.85999999999999 212.6L121.49 212.6" fill="#e5a89d"/><rect x="151.86" y="182.23" width="30.37" height="30.37" fill="#e2b3aa"/><path d="M 151.86 182.23 A 30.37 30.37 0 0 0 182.23000000000002 212.6 L 182.23000000000002 182.23L151.86 182.23" fill="#e6a498"/><rect x="151.86" y="212.6" width="30.37" height="30.37" fill="#e89b8e"/><path d="M 151.86 212.6 A 30.37 30.37 0 0 1  182.23000000000002 242.97 L 151.86 212.6 A 30.37 30.37 0 0 0 182.23000000000002 242.97" fill="#ec8c7c"/><rect x="182.23" y="182.23" width="60.74" height="60.74" fill="#e5a99e"/><path d="M 182.23 242.97 A 60.74 60.74 0 0 1  242.97 182.23 L 182.23 242.97 A 60.74 60.74 0 0 0 242.97 182.23" fill="#93908f"/><rect x="242.97" y="182.23" width="60.74" height="60.74" fill="#dbcfcb"/><path d="M 242.97 182.23 A 60.74 60.74 0 0 1  303.71 242.97 L 242.97 182.23 A 60.74 60.74 0 0 0 303.71 242.97" fill="#888584"/><rect x="0" y="242.97" width="60.74" height="60.74" fill="#e7a195"/><path d="M 0 242.97 A 60.74 60.74 0 0 0 60.74 303.71 L 60.74 242.97L0 242.97" fill="#e5a89c"/><rect x="60.74" y="242.97" width="60.74" height="60.74" fill="#e9988a"/><path d="M 60.74 303.71 A 60.74 60.74 0 0 1  121.48 242.97 L 60.74 303.71 A 60.74 60.74 0 0 0 121.48 242.97" fill="#bab5b3"/><rect x="121.49" y="242.97" width="60.74" height="60.74" fill="#bfbab8"/><path d="M 121.49 242.97 A 60.74 60.74 0 0 0 182.23 303.71 L 182.23 242.97L121.49 242.97" fill="#b3aeac"/><rect x="182.22857142857146" y="242.9714285714286" width="60.74285714285715" height="60.74285714285715" fill="#dad4d1"/><rect x="182.23" y="242.97" width="30.37" height="30.37" fill="#888584"/><path d="M 182.23 242.97 A 30.37 30.37 0 0 0 212.6 273.34 L 212.6 242.97L182.23 242.97" fill="#6f6d6e"/><rect x="212.6" y="242.97" width="30.37" height="30.37" fill="#232326"/><path d="M 212.6 242.97 A 30.37 30.37 0 0 1 242.97 273.34 L 212.6 273.34L212.6 242.97" fill="#ea9384"/><rect x="182.23" y="273.34" width="30.37" height="30.37" fill="#ea9384"/><path d="M 182.23 303.71 A 30.37 30.37 0 0 1  212.6 273.34 L 182.23 303.71 A 30.37 30.37 0 0 0 212.6 273.34" fill="#d1ccc9"/><rect x="212.6" y="273.34" width="30.37" height="30.37" fill="#232326"/><path d="M 212.6 273.34 A 30.37 30.37 0 0 1  242.97 303.71 L 212.6 273.34 A 30.37 30.37 0 0 0 242.97 303.71" fill="#232427"/><rect x="0" y="303.7142857142857" width="60.74285714285715" height="60.74285714285715" fill="#dad4d1"/><rect x="30.37" y="303.71" width="30.37" height="30.37" fill="#dfc0b9"/><path d="M 30.37 334.08 A 30.37 30.37 0 0 1  60.74 303.71 L 60.74 334.08L30.37 334.08" fill="#dec4be"/><rect x="0" y="334.09" width="30.37" height="30.37" fill="#e6a498"/><path d="M 0 364.46 A 30.37 30.37 0 0 1  30.37 334.09 L 0 364.46 A 30.37 30.37 0 0 0 30.37 334.09" fill="#e7a296"/><rect x="30.37" y="334.09" width="30.37" height="30.37" fill="#ddc7c1"/><path d="M 30.37 364.46 A 30.37 30.37 0 0 1  60.74 334.09 L 30.37 364.46 A 30.37 30.37 0 0 0 60.74 334.09" fill="#313133"/><rect x="60.74" y="303.71" width="60.74" height="60.74" fill="#93908f"/><path d="M 60.74 303.71 A 60.74 60.74 0 0 1  121.48 364.45 L 60.74 303.71 A 60.74 60.74 0 0 0 121.48 364.45" fill="#eb9080"/><rect x="182.22857142857146" y="303.7142857142857" width="60.74285714285715" height="60.74285714285715" fill="#dad4d1"/><rect x="182.23" y="303.71" width="30.37" height="30.37" fill="#b2adab"/><path d="M 182.23 303.71 A 30.37 30.37 0 0 1  212.6 334.08 L 182.23 303.71 A 30.37 30.37 0 0 0 212.6 334.08" fill="#e7a296"/><rect x="212.6" y="303.71" width="30.37" height="30.37" fill="#ec8d7d"/><path d="M 212.6 334.08 A 30.37 30.37 0 0 0 242.97 303.71 L 212.6 303.71L212.6 334.08" fill="#333335"/><rect x="182.23" y="334.09" width="30.37" height="30.37" fill="#827f7f"/><path d="M 182.23 334.09 A 30.37 30.37 0 0 1  212.6 364.46 L 182.23 334.09 A 30.37 30.37 0 0 0 212.6 364.46" fill="#e1b7af"/><rect x="212.6" y="334.09" width="30.37" height="30.37" fill="#ed8a7a"/><path d="M 212.6 334.09 A 30.37 30.37 0 0 1  242.97 364.46 L 212.6 334.09 A 30.37 30.37 0 0 0 242.97 364.46" fill="#93908f"/><rect x="242.9714285714286" y="303.7142857142857" width="60.74285714285715" height="60.74285714285715" fill="#dad4d1"/><rect x="242.97" y="303.71" width="30.37" height="30.37" fill="#e3b1a7"/><path d="M 242.97 303.71 A 30.37 30.37 0 0 0 273.34 334.08 L 273.34 303.71L242.97 303.71" fill="#e2b6ad"/><rect x="273.34" y="303.71" width="30.37" height="30.37" fill="#e89b8d"/><path d="M 273.34 334.08 A 30.37 30.37 0 0 1  303.71 303.71 L 303.71 334.08L273.34 334.08" fill="#a9a5a4"/><rect x="242.97" y="334.09" width="30.37" height="30.37" fill="#e2b4ab"/><path d="M 242.97 334.09 A 30.37 30.37 0 0 0 273.34 364.46 L 273.34 334.09L242.97 334.09" fill="#a7a3a2"/><rect x="273.34" y="334.09" width="30.37" height="30.37" fill="#dec4be"/><path d="M 273.34 364.46 A 30.37 30.37 0 0 1  303.71 334.09 L 303.71 364.46L273.34 364.46" fill="#e4aba0"/><rect x="121.4857142857143" y="364.4571428571429" width="60.74285714285715" height="60.74285714285715" fill="#dad4d1"/><rect x="151.86" y="364.46" width="30.37" height="30.37" fill="#e5a79b"/><path d="M 151.86 394.83 A 30.37 30.37 0 0 0 182.23000000000002 364.46 L 151.86 364.46L151.86 394.83" fill="#e1bab2"/><rect x="121.49" y="394.83" width="30.37" height="30.37" fill="#eb9080"/><path d="M 121.49 425.2 A 30.37 30.37 0 0 1  151.85999999999999 394.83 L 121.49 425.2 A 30.37 30.37 0 0 0 151.85999999999999 394.83" fill="#c4bfbc"/><rect x="182.23" y="364.46" width="60.74" height="60.74" fill="#353638"/><path d="M 182.23 364.46 A 60.74 60.74 0 0 0 242.97 425.2 L 242.97 364.46L182.23 364.46" fill="#e3b1a8"/><rect x="242.9714285714286" y="364.4571428571429" width="60.74285714285715" height="60.74285714285715" fill="#dad4d1"/><rect x="242.97" y="364.46" width="30.37" height="30.37" fill="#dcccc8"/><path d="M 242.97 394.83 A 30.37 30.37 0 0 1  273.34 364.46 L 273.34 394.83L242.97 394.83" fill="#959190"/><rect x="273.34" y="364.46" width="30.37" height="30.37" fill="#eb9081"/><path d="M 273.34 364.46 A 30.37 30.37 0 0 1 303.71 394.83 L 273.34 394.83L273.34 364.46" fill="#e0bbb3"/><rect x="242.97" y="394.83" width="30.37" height="30.37" fill="#ea9384"/><path d="M 242.97 394.83 A 30.37 30.37 0 0 1  273.34 425.2 L 242.97 394.83 A 30.37 30.37 0 0 0 273.34 425.2" fill="#4c4b4c"/><rect x="273.34" y="394.83" width="30.37" height="30.37" fill="#c6c1be"/><path d="M 273.34 394.83 A 30.37 30.37 0 0 1  303.71 425.2 L 273.34 394.83 A 30.37 30.37 0 0 0 303.71 425.2" fill="#dec4be"/></g></svg>